# xmcd
# Track frame offsets:
# 150
# 26125
# 46168
# 66695
# 85528
# 102950
# 124858
# 136031
# 161112
#
# Disc length: 2437 seconds
# Revision: 0
# Processed by: cddbd v1.4PL0 Copyright (c) Steve Scherf et al.
# Submitted via: VisiTrax 2.9.5.181 - For more info visit www.synapsa.com
#
DISCID=76098309
DTITLE=Dr. Duke Tumatoe and the Power Trio - Pompous and Overrated
DYEAR=2001
DGENRE=blues
TTITLE0=Enough Trouble Of My Own
TTITLE1=Something Wrong With The Blues
TTITLE2=One Arm Woman
TTITLE3=Built Like A Truck
TTITLE4=Backdoor Man
TTITLE5=My Baby Is A Nudist
TTITLE6=Big Hands/Bass Talk
TTITLE7=You Know What?
TTITLE8=You Don't Have To Go Home
EXTD=Recorded Live Nov. 2000 at:\nThe Red Key Palace--Red Key,IN\nThe Blueb
EXTD=ird--Bloomington,IN\nCzar's--St. Joseph,MI
EXTT0=
EXTT1=
EXTT2=
EXTT3=
EXTT4=
EXTT5=
EXTT6=
EXTT7=
EXTT8=
PLAYORDER=
